# xmcd
#
# Track frame offsets:
# 150
# 13985
# 32622
# 48042
# 67207
# 81907
# 93665
# 113277
# 125772
# 143940
# 157527
# 174570
#
# Disc length: 2533 seconds
#
# Revision: 0
# Processed by: cddbd v1.4PL0 Copyright (c) Steve Scherf et al.
# Submitted via: Axialis_AX_CDPlayer 2.6
#
DISCID=9809e30c
DTITLE=Jason McCoy - Sins, Lies and Angels
DYEAR=2003
DGENRE=Country
TTITLE0=Please, Please
TTITLE1=Still
TTITLE2=Guardian Angel
TTITLE3=I Lie
TTITLE4=It Ain't Easy Being Me
TTITLE5=I Feel A Sin Comin' On
TTITLE6=Wild Flower
TTITLE7=She Ain't Missin' Missin' Me
TTITLE8=She'd Rather Be Lonely Than Sorry
TTITLE9=You Still Do It For Me
TTITLE10=Thrown Out Of Love
TTITLE11=Old Chunk of Coal
EXTD=
EXTT0=
EXTT1=
EXTT2=
EXTT3=
EXTT4=
EXTT5=
EXTT6=
EXTT7=
EXTT8=
EXTT9=
EXTT10=
EXTT11=
PLAYORDER=
